<?xml version="1.0" encoding="UTF-8"?>
<svg id="uuid-d7bb07c3-2772-4367-8280-729edcf605ff" data-name="Layer_1" xmlns="http://www.w3.org/2000/svg" viewBox="0 0 1024 1024">
  <rect x="-3" y="-3" width="1030" height="1030" style="fill: #e23e57;"/>
  <g>
    <polygon points="241.7 621.32 241.13 599.51 254.16 580.14 279.12 620.34 320.91 619.24 273.28 551.71 313.89 491.33 287.53 479.07 239.72 546.14 237.14 448.14 201.26 449.09 205.82 622.27 241.7 621.32" style="fill: #fff;"/>
    <path d="M317.65,515.64c-4.88,9.37-7.16,20.36-6.82,33.01.36,13.5,3.12,24.55,8.31,33.13,5.18,8.58,12.06,14.86,20.63,18.82,8.57,3.96,18.06,5.82,28.49,5.54,6.66-.18,12.41-1.32,17.22-3.41,4.82-2.09,8.86-4.51,12.12-7.24,3.27-2.73,5.72-5.11,7.38-7.12.09-.11.16-.2.25-.3l.37,14,35.88-.94-2.95-112.02-33.32.88-2.03,11.51c-3.79-4.11-8.44-7.85-14-11.22-5.82-3.53-14.28-5.14-25.39-4.84-9.4.25-18.22,3-26.46,8.26-8.24,5.27-14.8,12.57-19.68,21.94ZM350.61,529.91c2.44-4.68,5.81-8.41,10.1-11.17,4.29-2.76,8.99-4.21,14.12-4.35,4.62-.12,8.82.5,12.62,1.85,3.8,1.36,7.1,3.32,9.91,5.9,2.8,2.58,4.94,5.73,6.41,9.45l.72,27.42c-1.79,3.81-3.92,6.99-6.42,9.53-2.5,2.55-5.44,4.5-8.83,5.88-3.39,1.37-7.21,2.11-11.48,2.23-5.3.14-10.25-1.09-14.85-3.71-4.6-2.61-8.33-6.28-11.19-10.99s-4.37-10.06-4.53-16.04c-.16-5.98.99-11.32,3.43-16Z" style="fill: #fff;"/>
    <path d="M558.6,511.75c-7.26-6.04-16.19-8.93-26.77-8.66-10.43.27-19.17,2.68-26.24,7.23-6.91,4.45-12.23,10.15-15.96,17.05l-2.08-78.94-35.12.92,4.56,173.18,35.88-.94-1.2-45.63c-.21-8.03.71-15.15,2.78-21.36,2.05-6.21,5.09-11.16,9.1-14.86,4.01-3.7,8.74-5.61,14.22-5.76,5.81-.15,9.99,1.24,12.54,4.16,2.56,2.93,3.99,6.87,4.29,11.82l1.86,70.49,35.89-.94-2.21-83.81c-.43-9.91-4.28-17.88-11.53-23.94Z" style="fill: #fff;"/>
    <rect x="585.58" y="499.14" width="35.89" height="112.06" transform="translate(-14.4 16.07) rotate(-1.51)" style="fill: #fff;"/>
    <path d="M588.91,472.71c4.28,3.23,8.8,4.77,13.59,4.64,4.78-.13,9.14-1.9,13.07-5.34,3.93-3.44,5.82-7.81,5.68-13.1-.14-5.29-2.26-9.6-6.37-12.91-4.11-3.31-8.55-4.9-13.34-4.78-4.78.13-9.22,1.95-13.32,5.48-4.1,3.53-6.08,7.94-5.94,13.24.14,5.29,2.35,9.55,6.62,12.78Z" style="fill: #fff;"/>
    <polygon points="689.14 510.9 687.86 462.2 651.97 463.15 653.25 511.85 635.82 512.31 636.55 540.25 653.98 539.79 656.21 624.38 692.1 623.43 689.87 538.84 717.05 538.13 716.31 510.19 689.14 510.9" style="fill: #fff;"/>
    <path d="M206.98,426.24h28.52c2.04,0,3.69-1.65,3.69-3.69v-7.62c4.13,3.85,8.78,7.07,13.98,9.63,6.41,3.16,14.31,4.75,23.72,4.75,10.25,0,19.83-2.48,28.72-7.44,8.89-4.96,16.02-12.05,21.41-21.28,5.38-9.23,8.07-20.17,8.07-32.82s-2.44-23.38-7.31-32.18c-4.87-8.8-11.32-15.51-19.36-20.13-8.04-4.62-16.92-6.92-26.67-6.92s-17.78,1.28-25.13,3.85c-7.35,2.56-13.25,5.72-17.69,9.48,0,0,0,0,0,0v-65.2c0-2.04-1.65-3.69-3.69-3.69h-28.27c-2.04,0-3.69,1.65-3.69,3.69v165.87c0,2.04,1.65,3.69,3.69,3.69ZM239.19,354.7s0,0,0,0c1.54-3.76,3.72-6.96,6.54-9.62,2.82-2.64,6.24-4.7,10.26-6.15,3.56-1.29,7.37-2.01,11.41-2.16,5.45-.2,10.99.97,15.75,3.64,4.77,2.68,8.59,6.42,11.44,11.21,2.73,4.61,4.1,9.91,4.1,15.9s-1.37,11.37-4.1,16.15c-2.91,5.07-6.82,9-11.73,11.77-5,2.83-10.91,3.87-16.64,3.54-3.55-.21-6.84-.83-9.84-1.85-3.76-1.28-7.05-3.15-9.88-5.64-2.82-2.48-5.25-5.59-7.3-9.36,0,0,0,0,0,0v-27.44Z" style="fill: #fff;"/>
    <rect x="348.76" y="335.99" width="35.89" height="112.06" style="fill: #fff;"/>
    <path d="M354.27,309.2c4.19,3.34,8.68,5,13.46,5s9.19-1.66,13.2-5,6.03-7.65,6.03-12.95-2.01-9.66-6.03-13.08-8.42-5.13-13.2-5.13-9.27,1.7-13.46,5.13-6.28,7.78-6.28,13.08,2.09,9.61,6.28,12.95Z" style="fill: #fff;"/>
    <polygon points="442.94 387.11 453.03 379.52 480.37 426.24 522.17 426.24 478.33 360.49 518.07 330.6 496.28 311.36 442.94 350.56 442.94 253 407.04 253 407.04 426.24 442.94 426.24 442.94 387.11" style="fill: #fff;"/>
    <path d="M550.32,421.62c9.48,5.13,21.06,7.7,34.74,7.7,6.16,0,12.69-1.03,19.62-3.08,6.92-2.05,13.38-4.78,19.36-8.21l-15.9-26.67c-3.59,2.22-7.23,4.02-10.9,5.38-3.68,1.38-7.48,2.06-11.42,2.06-5.47,0-10.43-1.2-14.87-3.59-2.84-1.53-5.29-3.54-7.36-6.01l81.98-26.04c-3.07-17.61-9.79-31.07-20.13-40.39-10.34-9.31-23.56-13.97-39.62-13.97-11.96,0-22.82,2.69-32.56,8.08-9.74,5.38-17.52,12.61-23.33,21.67-5.81,9.06-8.72,19.23-8.72,30.51s2.47,22.22,7.43,31.28c4.96,9.06,12.18,16.16,21.67,21.28ZM559.81,350.98c2.14-4.52,5.22-8.03,9.24-10.51,4.01-2.47,8.67-3.72,13.97-3.72,7.01,0,12.27,1.68,15.77,5.01,3.31,3.14,5.65,6.79,7.06,10.93l-49.18,16.59c-.03-.74-.05-1.49-.05-2.27,0-6.15,1.06-11.49,3.2-16.02Z" style="fill: #fff;"/>
    <path d="M277.83,705.61c-3.93-2.9-8.63-5.21-14.11-6.92-3.93-1.36-7.94-2.56-12.05-3.59-4.1-1.02-7.48-2.47-10.13-4.36-2.65-1.87-3.89-4.44-3.72-7.69,0-1.54.6-2.99,1.8-4.36,1.19-1.37,2.86-2.48,5.01-3.34,2.13-.85,4.74-1.19,7.82-1.02,3.42.17,7.13,1.16,11.15,2.95,4.02,1.8,7.65,3.98,10.9,6.54l13.6-21.02c-5.81-4.27-11.97-7.35-18.47-9.24s-14.45-2.82-23.85-2.82c-10.43,0-18.93,1.92-25.52,5.76s-11.37,8.63-14.35,14.36c-3,5.73-4.49,11.41-4.49,17.05,0,7.35,2.26,14.15,6.79,20.38,4.52,6.25,11.92,10.99,22.18,14.23,4.1,1.2,7.95,2.35,11.54,3.46,3.59,1.12,6.54,2.53,8.85,4.23,2.31,1.72,3.46,4.02,3.46,6.93,0,2.04-.68,3.72-2.05,5s-3.2,2.23-5.51,2.83c-2.31.6-4.92.89-7.82.89-3.76,0-7.99-1.06-12.69-3.21-4.7-2.13-9.79-5.68-15.26-10.63l-14.87,19.74c5.47,5.82,12.18,10.35,20.13,13.6,7.95,3.24,16.54,4.87,25.77,4.87,10.94,0,19.96-1.88,27.06-5.64,7.09-3.76,12.39-8.68,15.9-14.74,3.5-6.07,5.26-12.52,5.26-19.37,0-5.64-1.07-10.46-3.21-14.48-2.14-4.02-5.17-7.48-9.1-10.39Z" style="fill: #fff;"/>
    <path d="M390.45,667.31c-3.68-4.21-8.23-8.07-13.7-11.58-5.73-3.68-14.14-5.51-25.25-5.51-9.41,0-18.3,2.52-26.67,7.56-8.38,5.05-15.13,12.18-20.25,21.41-5.13,9.24-7.69,20.17-7.69,32.82,0,13.5,2.47,24.62,7.43,33.34,4.96,8.72,11.66,15.17,20.13,19.35,8.46,4.19,17.9,6.29,28.33,6.29,6.67,0,12.44-.99,17.31-2.95,4.88-1.96,8.97-4.27,12.31-6.92,3.34-2.65,5.86-4.96,7.57-6.92.09-.1.17-.19.26-.29v14.01h35.89v-112.06h-33.33l-2.33,11.45ZM383.55,734.2c-2.57,2.48-5.56,4.36-8.98,5.64-3.42,1.28-7.26,1.92-11.54,1.92-5.3,0-10.22-1.36-14.75-4.1-4.53-2.73-8.16-6.5-10.9-11.28-2.73-4.79-4.1-10.17-4.1-16.15s1.28-11.29,3.85-15.9,6.03-8.25,10.39-10.9c4.36-2.65,9.1-3.98,14.23-3.98,4.62,0,8.8.73,12.57,2.18,3.76,1.46,7.01,3.51,9.75,6.16,2.73,2.65,4.78,5.86,6.16,9.62v27.43c-1.89,3.76-4.1,6.89-6.67,9.36Z" style="fill: #fff;"/>
    <path d="M533.35,667.31c-3.68-4.21-8.23-8.07-13.7-11.58-5.73-3.68-14.14-5.51-25.25-5.51-9.41,0-18.3,2.52-26.67,7.56-8.38,5.05-15.13,12.18-20.25,21.41-5.13,9.24-7.69,20.17-7.69,32.82,0,13.5,2.47,24.62,7.43,33.34,4.96,8.72,11.66,15.17,20.13,19.35,8.46,4.19,17.9,6.29,28.33,6.29,6.67,0,12.44-.99,17.31-2.95,4.88-1.96,8.97-4.27,12.31-6.92,3.34-2.65,5.86-4.96,7.57-6.92.09-.1.17-.19.26-.29v14.01h35.89v-112.06h-33.33l-2.33,11.45ZM526.45,734.2c-2.57,2.48-5.56,4.36-8.98,5.64-3.42,1.28-7.26,1.92-11.54,1.92-5.3,0-10.22-1.36-14.75-4.1-4.53-2.73-8.16-6.5-10.9-11.28-2.73-4.79-4.1-10.17-4.1-16.15s1.28-11.29,3.85-15.9c2.56-4.61,6.03-8.25,10.39-10.9,4.36-2.65,9.1-3.98,14.23-3.98,4.62,0,8.8.73,12.57,2.18,3.76,1.46,7.01,3.51,9.75,6.16,2.73,2.65,4.78,5.86,6.16,9.62v27.43c-1.89,3.76-4.1,6.89-6.67,9.36Z" style="fill: #fff;"/>
    <path d="M695.89,659.84c-7.1-6.23-15.95-9.36-26.54-9.36s-19.23,2.17-26.42,6.54c-7.06,4.29-12.54,9.86-16.45,16.7l-2.52-17.86h-32.56v112.06h35.89v-45.64c0-8.03,1.11-15.13,3.34-21.28,2.22-6.16,5.38-11.03,9.48-14.62,4.1-3.59,8.89-5.38,14.36-5.38,5.81,0,9.95,1.5,12.43,4.49,2.48,3,3.81,6.97,3.98,11.93v70.51h35.9v-83.84c-.17-9.92-3.81-17.99-10.9-24.24Z" style="fill: #fff;"/>
    <path d="M849.08,615.02c-11.14-4.22-23.49-5.98-36.39-4.63-36.68,3.84-66.24,33.6-69.88,70.3-4.93,49.82,36.6,91.35,86.42,86.42,37.3-3.69,67.28-34.16,70.45-71.5,3.1-36.61-18.85-68.56-50.6-80.58ZM820.04,719.35l-48.2,5.48c-1.7.19-2.59-1.96-1.25-3.02l40.18-31.73c1.04-.82,2.57-.31,2.91.97l7.16,27.21c.14.54-.25,1.07-.8,1.09ZM876.92,654.39l-46.11,63c-.71.97-2.22.68-2.53-.47l-11.52-43.12c-.19-.72.21-1.47.91-1.72l57.63-19.88c1.32-.46,2.44,1.06,1.62,2.19Z" style="fill: #fff;"/>
  </g>
</svg>