<?xml version="1.0" encoding="UTF-8"?>
<svg id="uuid-e7a6b72e-d944-465a-90ec-c68c173b8042" data-name="Layer_1" xmlns="http://www.w3.org/2000/svg" viewBox="0 0 1024 1024">
  <rect y="1.52" width="1024.8" height="1024.8" style="fill: #16b26e;"/>
  <g>
    <g>
      <path d="M716.44,762.33c-76.78,0-139.25-62.47-139.25-139.25s62.47-139.25,139.25-139.25,139.25,62.47,139.25,139.25-62.47,139.25-139.25,139.25ZM716.44,523.85c-54.71,0-99.22,44.51-99.22,99.22s44.51,99.22,99.22,99.22,99.22-44.51,99.22-99.22-44.51-99.22-99.22-99.22Z" style="fill: #fff;"/>
      <path d="M308.36,758.32c-76.78,0-139.25-62.47-139.25-139.25s62.47-139.25,139.25-139.25,139.25,62.47,139.25,139.25-62.47,139.25-139.25,139.25ZM308.36,519.84c-54.71,0-99.22,44.51-99.22,99.22s44.51,99.22,99.22,99.22,99.22-44.51,99.22-99.22-44.51-99.22-99.22-99.22Z" style="fill: #fff;"/>
    </g>
    <path d="M373.28,265.7c-44.18-2.05-86.26,13.75-118.51,44.53-32.37,30.89-50.93,74.27-50.93,119.02v70.82c14.21-13.96,31.2-25.08,50.04-32.5v-38.33c0-31.14,12.92-61.33,35.44-82.83,22.25-21.24,51.24-32.15,81.63-30.74,59.68,2.79,106.42,51.82,106.42,111.62v305.99c0,13.82,11.2,25.02,25.02,25.02s25.02-11.2,25.02-25.02v-305.99c0-86.58-67.7-157.57-154.13-161.61Z" style="fill: #23332b;"/>
    <g>
      <path d="M716.45,633.88c-7.95,0-15.48-4.78-18.6-12.62l-85.61-214.92c-2.19-5.49-7.42-9.04-13.33-9.04h-25.62c-11.05,0-20.02-8.96-20.02-20.02s8.96-20.02,20.02-20.02h25.62c22.4,0,42.23,13.45,50.52,34.26l85.61,214.92c4.09,10.27-.92,21.91-11.19,26-2.43.97-4.94,1.43-7.4,1.43Z" style="fill: #fff;"/>
      <path d="M418.08,496.08c-11.05,0-20.02-8.96-20.02-20.02v-18.64c0-7.91-6.44-14.35-14.35-14.35h-44.66c-11.05,0-20.02-8.96-20.02-20.02s8.96-20.02,20.02-20.02h44.66c29.99,0,54.38,24.4,54.38,54.38v18.64c0,11.05-8.96,20.02-20.02,20.02Z" style="fill: #fff;"/>
      <path d="M308.35,638.08c-4.27,0-8.58-1.36-12.22-4.18-8.75-6.76-10.36-19.33-3.6-28.08l109.72-142c6.76-8.75,19.33-10.36,28.08-3.6,8.75,6.76,10.36,19.33,3.6,28.08l-109.72,142c-3.94,5.1-9.87,7.78-15.85,7.78Z" style="fill: #fff;"/>
      <g>
        <path d="M458.43,456.05h-40.35c-11.05,0-20.02,8.96-20.02,20.02s8.96,20.02,20.02,20.02h40.35v-40.03Z" style="fill: #fff;"/>
        <path d="M661.55,456.05h-116.34v40.03h116.34c11.05,0,20.02-8.96,20.02-20.02s-8.96-20.02-20.02-20.02Z" style="fill: #fff;"/>
      </g>
    </g>
  </g>
</svg>