<?xml version="1.0" encoding="UTF-8"?>
<svg id="uuid-9d59afa1-0c6a-47e4-80f3-fb68ad54733e" data-name="Layer_1" xmlns="http://www.w3.org/2000/svg" viewBox="0 0 1024 1024">
  <rect x="-3" y="-3" width="1030" height="1030" style="fill: #0a244e;"/>
  <g>
    <path d="M471.19,190.52h67.61c111.95,0,202.84,90.89,202.84,202.84h0c0,111.95-90.89,202.84-202.84,202.84h-67.61V190.52h0Z" style="fill: #ffe224;"/>
    <path d="M538.8,190.52h-59.24v270.45h250.49c7.48-21.15,11.59-43.9,11.59-67.61h0c0-112.02-90.81-202.84-202.84-202.84Z" style="fill: #0e94d8;"/>
    <path d="M351.61,190.52h133.1v270.45h-202.84v-200.71c0-38.49,31.25-69.74,69.74-69.74Z" style="fill: #fd5c17;"/>
    <path d="M281.87,596.19h202.84v174.17c0,53.14-43.14,96.29-96.29,96.29h-88.65c-9.88,0-17.9-8.02-17.9-17.9v-252.55h0Z" style="fill: #fd5c17;"/>
    <rect x="281.87" y="460.97" width="202.84" height="135.23" style="fill: #0e94d8;"/>
    <path d="M347.42,190.52h35.87v270.45h-101.42v-204.9c0-36.18,29.37-65.55,65.55-65.55Z" style="fill: #ffe224;"/>
  </g>
</svg>