<?xml version="1.0" encoding="UTF-8"?>
<svg id="uuid-f238cfa0-1d16-40d7-8e8f-82a77705b47a" data-name="Layer_1" xmlns="http://www.w3.org/2000/svg" viewBox="0 0 1024 1024">
  <rect x="-3" y="-3" width="1030" height="1030" style="fill: #d4d4d4;"/>
  <g>
    <rect x="347" y="462.5" width="396" height="165" style="fill: #d4d4d4;"/>
    <rect x="314" y="264.5" width="33" height="33"/>
    <rect x="314" y="297.5" width="330" height="33" style="fill: #515151;"/>
    <rect x="281" y="330.5" width="429" height="33" style="fill: #515151;"/>
    <rect x="347" y="264.5" width="33" height="33"/>
    <rect x="380" y="264.5" width="33" height="33"/>
    <rect x="413" y="264.5" width="33" height="33"/>
    <rect x="446" y="264.5" width="33" height="33"/>
    <rect x="479" y="264.5" width="33" height="33"/>
    <rect x="512" y="264.5" width="33" height="33"/>
    <rect x="545" y="264.5" width="33" height="33"/>
    <rect x="578" y="264.5" width="33" height="33"/>
    <rect x="611" y="264.5" width="33" height="33"/>
    <rect x="644" y="297.5" width="33" height="33"/>
    <rect x="677" y="297.5" width="33" height="33"/>
    <rect x="710" y="330.5" width="33" height="33"/>
    <rect x="743" y="363.5" width="33" height="33"/>
    <rect x="776" y="396.5" width="33" height="33"/>
    <rect x="809" y="429.5" width="33" height="33"/>
    <rect x="809" y="462.5" width="33" height="33"/>
    <rect x="809" y="495.5" width="33" height="33"/>
    <rect x="677" y="396.5" width="33" height="33"/>
    <rect x="644" y="396.5" width="33" height="33"/>
    <rect x="380" y="396.5" width="33" height="33"/>
    <rect x="347" y="396.5" width="33" height="33" style="fill: #515151;"/>
    <rect x="611" y="363.5" width="33" height="33"/>
    <rect x="578" y="363.5" width="33" height="33"/>
    <rect x="545" y="363.5" width="33" height="33"/>
    <rect x="512" y="363.5" width="33" height="33"/>
    <rect x="479" y="363.5" width="33" height="33"/>
    <rect x="446" y="363.5" width="33" height="33"/>
    <rect x="413" y="363.5" width="33" height="33"/>
    <rect x="248" y="363.5" width="165" height="33" style="fill: #515151;"/>
    <rect x="314" y="693.5" width="462" height="33" style="fill: #515151;"/>
    <rect x="578" y="660.5" width="132" height="33" style="fill: #515151;"/>
    <rect x="248" y="660.5" width="132" height="33" style="fill: #515151;"/>
    <rect x="215" y="396.5" width="132" height="66" style="fill: #515151;"/>
    <rect x="215" y="627.5" width="132" height="33" style="fill: #515151;"/>
    <rect x="182" y="462.5" width="132" height="165" style="fill: #515151;"/>
    <rect x="710" y="429.5" width="33" height="33"/>
    <rect x="347" y="429.5" width="33" height="33"/>
    <rect x="347" y="627.5" width="33" height="33"/>
    <rect x="578" y="627.5" width="33" height="33"/>
    <rect x="611" y="627.5" width="33" height="33"/>
    <rect x="611" y="726.5" width="33" height="33"/>
    <rect x="644" y="726.5" width="33" height="33"/>
    <rect x="677" y="726.5" width="33" height="33"/>
    <rect x="710" y="726.5" width="66" height="33"/>
    <rect x="644" y="627.5" width="33" height="33"/>
    <rect x="677" y="627.5" width="33" height="33"/>
    <rect x="743" y="462.5" width="33" height="33"/>
    <rect x="743" y="495.5" width="33" height="33"/>
    <rect x="710" y="495.5" width="33" height="33" style="fill: #545454;"/>
    <rect x="677" y="495.5" width="33" height="33" style="fill: #545454;"/>
    <rect x="644" y="495.5" width="33" height="33" style="fill: #545454;"/>
    <rect x="479" y="495.5" width="33" height="33" style="fill: #545454;"/>
    <rect x="446" y="495.5" width="33" height="33" style="fill: #545454;"/>
    <rect x="413" y="495.5" width="33" height="33" style="fill: #545454;"/>
    <rect x="512" y="495.5" width="33" height="33" style="fill: #545454;"/>
    <rect x="611" y="462.5" width="33" height="33" style="fill: #545454;"/>
    <rect x="545" y="462.5" width="33" height="33" style="fill: #545454;"/>
    <rect x="710" y="528.5" width="33" height="33"/>
    <rect x="710" y="627.5" width="33" height="33" style="fill: #d4d4d4;"/>
    <rect x="380" y="429.5" width="330" height="33" style="fill: #d4d4d4;"/>
    <rect x="413" y="396.5" width="231" height="33" style="fill: #d4d4d4;"/>
    <rect x="380" y="627.5" width="198" height="33" style="fill: #d4d4d4;"/>
    <rect x="479" y="528.5" width="33" height="33"/>
    <rect x="314" y="462.5" width="33" height="33"/>
    <rect x="314" y="495.5" width="33" height="33"/>
    <rect x="314" y="528.5" width="33" height="33"/>
    <rect x="314" y="561.5" width="33" height="33"/>
    <rect x="314" y="594.5" width="33" height="33"/>
    <rect x="776" y="528.5" width="33" height="33"/>
    <rect x="743" y="528.5" width="33" height="132" style="fill: #d4d4d4;"/>
    <rect x="776" y="561.5" width="33" height="33"/>
    <rect x="710" y="561.5" width="33" height="33" style="fill: #fdfdfd;"/>
    <rect x="677" y="561.5" width="33" height="33" style="fill: #fdfdfd;"/>
    <rect x="479" y="561.5" width="33" height="33" style="fill: #fdfdfd;"/>
    <rect x="446" y="561.5" width="33" height="33" style="fill: #fdfdfd;"/>
    <rect x="413" y="561.5" width="33" height="33" style="fill: #fdfdfd;"/>
    <rect x="611" y="561.5" width="33" height="33"/>
    <rect x="776" y="594.5" width="33" height="33"/>
    <rect x="776" y="627.5" width="33" height="33"/>
    <rect x="842" y="528.5" width="33" height="33"/>
    <rect x="842" y="561.5" width="33" height="33"/>
    <rect x="842" y="594.5" width="33" height="33"/>
    <rect x="842" y="627.5" width="33" height="33"/>
    <rect x="809" y="660.5" width="33" height="33"/>
    <rect x="776" y="660.5" width="33" height="33" style="fill: #515151;"/>
    <rect x="809" y="528.5" width="33" height="132" style="fill: #515151;"/>
    <rect x="776" y="462.5" width="33" height="66" style="fill: #515151;"/>
    <rect x="743" y="429.5" width="66" height="33" style="fill: #515151;"/>
    <rect x="710" y="396.5" width="66" height="33" style="fill: #515151;"/>
    <rect x="644" y="363.5" width="99" height="33" style="fill: #515151;"/>
    <rect x="776" y="693.5" width="33" height="33"/>
    <rect x="314" y="726.5" width="33" height="33"/>
    <rect x="347" y="726.5" width="33" height="33"/>
    <rect x="380" y="726.5" width="33" height="33"/>
    <rect x="413" y="726.5" width="33" height="33"/>
    <rect x="446" y="726.5" width="33" height="33"/>
    <rect x="479" y="726.5" width="33" height="33"/>
    <rect x="512" y="726.5" width="33" height="33"/>
    <rect x="545" y="726.5" width="33" height="33"/>
    <rect x="578" y="726.5" width="33" height="33"/>
    <rect x="281" y="693.5" width="33" height="33"/>
    <rect x="248" y="693.5" width="33" height="33"/>
    <rect x="215" y="660.5" width="33" height="33"/>
    <rect x="380" y="660.5" width="33" height="33"/>
    <rect x="413" y="660.5" width="33" height="33"/>
    <rect x="446" y="660.5" width="33" height="33"/>
    <rect x="479" y="660.5" width="33" height="33"/>
    <rect x="512" y="660.5" width="33" height="33"/>
    <rect x="545" y="660.5" width="33" height="33"/>
    <rect x="710" y="660.5" width="33" height="33"/>
    <rect x="743" y="660.5" width="33" height="33"/>
    <rect x="182" y="627.5" width="33" height="33"/>
    <rect x="149" y="594.5" width="33" height="33"/>
    <rect x="149" y="561.5" width="33" height="33"/>
    <rect x="149" y="528.5" width="33" height="33"/>
    <rect x="149" y="495.5" width="33" height="33"/>
    <rect x="149" y="462.5" width="33" height="33"/>
    <rect x="182" y="429.5" width="33" height="33"/>
    <rect x="182" y="396.5" width="33" height="33"/>
    <rect x="215" y="363.5" width="33" height="33"/>
    <rect x="248" y="330.5" width="33" height="33"/>
    <rect x="281" y="297.5" width="33" height="33"/>
  </g>
</svg>